<?xml version="1.0" standalone="no"?>
<!DOCTYPE svg PUBLIC "-//W3C//DTD SVG 20010904//EN"
 "http://www.w3.org/TR/2001/REC-SVG-20010904/DTD/svg10.dtd">
<svg version="1.0" xmlns="http://www.w3.org/2000/svg"
 width="500.000000pt" height="500.000000pt" viewBox="0 0 500.000000 500.000000"
 preserveAspectRatio="xMidYMid meet">

<g transform="translate(0.000000,500.000000) scale(0.100000,-0.100000)"
fill="#000000" stroke="none">
<path d="M1250 2760 l0 -330 130 0 130 0 -27 53 c-22 40 -29 69 -31 129 -5
100 15 162 74 227 57 63 95 86 174 107 218 56 438 -155 391 -374 -7 -31 -21
-72 -32 -90 -10 -18 -19 -37 -19 -43 0 -5 53 -9 125 -9 l125 0 0 330 0 330
-520 0 -520 0 0 -330z"/>
<path d="M2543 2694 c15 -5 17 -20 17 -129 0 -109 -2 -124 -17 -128 -10 -3 9
-5 42 -5 33 0 52 2 43 5 -14 3 -18 15 -18 47 0 43 0 43 42 49 88 12 128 85 73
137 -22 21 -36 24 -113 26 -48 2 -79 1 -69 -2z m139 -21 c49 -56 15 -132 -59
-133 -9 0 -13 22 -13 75 l0 75 28 0 c16 0 36 -8 44 -17z"/>
<path d="M2770 2694 c9 -3 39 -53 67 -112 53 -112 56 -142 12 -142 -16 0 -19
4 -14 18 13 32 10 47 -12 50 -30 4 -41 -33 -17 -59 43 -47 90 -9 138 114 34
87 32 99 -3 22 l-28 -60 -36 76 c-21 42 -37 79 -37 82 0 3 8 8 18 10 9 3 -10
5 -43 5 -33 0 -53 -2 -45 -4z"/>
<path d="M2957 2688 c6 -7 12 -18 14 -25 2 -6 12 -1 22 13 l18 24 -32 0 c-24
0 -29 -3 -22 -12z"/>
<path d="M3095 2690 c-11 -4 -31 -20 -45 -35 -22 -23 -25 -36 -25 -97 0 -66 2
-71 33 -99 24 -22 42 -29 70 -28 l37 1 -33 8 c-50 12 -61 34 -62 121 0 84 19
123 63 132 19 4 19 4 2 5 -11 0 -29 -3 -40 -8z"/>
<path d="M3558 2684 c20 -14 22 -23 21 -102 -1 -48 -4 -98 -8 -111 -10 -36
-30 -38 -28 -4 2 22 -2 28 -18 28 -14 0 -21 -8 -23 -27 -2 -20 -9 -28 -23 -28
-10 0 -19 6 -19 12 0 7 -11 42 -24 78 -13 36 -32 86 -41 113 -10 26 -20 47
-24 47 -3 0 -24 -48 -45 -106 -22 -58 -48 -117 -59 -130 l-18 -24 38 1 c21 1
30 3 21 6 -21 5 -23 22 -6 58 10 23 17 26 51 23 36 -3 41 -7 53 -40 11 -33 11
-37 -4 -41 -9 -3 26 -4 78 -3 l95 1 6 30 c4 17 7 69 8 116 1 96 10 113 58 107
l28 -3 3 -118 c3 -114 2 -118 -20 -127 -18 -7 -9 -9 37 -8 33 0 52 2 43 5 -16
4 -18 19 -18 128 0 109 2 124 18 128 9 3 -32 5 -93 6 -102 1 -108 0 -87 -15z
m-178 -140 c0 -9 -11 -14 -30 -14 -35 0 -35 -2 -14 51 l17 41 13 -32 c8 -18
14 -39 14 -46z"/>
<path d="M1643 2305 l2 -390 383 -3 c257 -1 381 1 377 8 -3 5 -14 10 -23 10
-26 0 -213 93 -283 141 -182 123 -347 332 -426 538 l-32 86 2 -390z"/>
<path d="M3181 2669 c11 -11 19 -29 19 -41 0 -34 14 -11 17 27 2 31 -1 34 -26
33 -27 -1 -28 -1 -10 -19z"/>
<path d="M3200 2490 c0 -7 -8 -22 -17 -32 -16 -18 -16 -18 0 -12 10 3 17 1 17
-5 0 -6 3 -11 8 -11 9 0 8 57 -1 67 -4 3 -7 0 -7 -7z"/>
</g>
</svg>
